<?xml version='1.0' encoding='utf-8'?>
<svg xmlns="http://www.w3.org/2000/svg" width="3000" height="1400" viewBox="0 0 793.74998 370.41668" version="1.1" id="svg8"> <defs id="defs2"/> <metadata id="metadata5"> </metadata> <g id="layer1" transform="translate(0,73.41669)"> <path style="opacity:1;fill:#ff862c;fill-opacity:1;fill-rule:nonzero;stroke:none;stroke-width:37.02385712;stroke-linecap:round;stroke-linejoin:round;stroke-miterlimit:4;stroke-dasharray:none;stroke-dashoffset:0;stroke-opacity:1;paint-order:normal" d="m 567.76948,140.77553 a 157.10601,25.711032 0 0 0 -157.10613,25.71074 157.10601,25.711032 0 0 0 60.009,20.17669 157.10601,25.711032 0 0 0 -6.51274,7.27541 157.10601,25.711032 0 0 0 4.20644,5.77025 205.67462,39.436944 0 0 0 -115.42179,35.40739 205.67462,39.436944 0 0 0 205.67468,39.43678 205.67462,39.436944 0 0 0 205.67468,-39.43678 205.67462,39.436944 0 0 0 -36.40391,-22.3266 157.10601,25.711032 0 0 0 50.4817,-18.85104 157.10601,25.711032 0 0 0 -60.009,-20.17672 157.10601,25.711032 0 0 0 6.5132,-7.27538 157.10601,25.711032 0 0 0 -157.10613,-25.71074 z" id="ellipse2239"/> <path style="opacity:1;fill:#ffab2c;fill-opacity:1;fill-rule:nonzero;stroke:none;stroke-width:42.36191559;stroke-linecap:round;stroke-linejoin:round;stroke-miterlimit:4;stroke-dasharray:none;stroke-dashoffset:0;stroke-opacity:1;paint-order:normal" d="M 268.2634,137.25607 A 256.00296,43.308353 0 0 0 12.260049,180.5644 256.00296,43.308353 0 0 0 268.2634,223.87272 256.00296,43.308353 0 0 0 517.22476,190.45258 205.67463,25.711031 0 0 0 690.38486,165.07867 205.67463,25.711031 0 0 0 484.71019,139.36749 205.67463,25.711031 0 0 0 388.6341,142.36474 256.00296,43.308353 0 0 0 268.2634,137.25607 Z" id="ellipse2235"/> <path id="path2284" d="m 410.42853,135.29884 c -0.0104,0.0211 -0.0274,0.0664 -0.0478,0.12671 0.0162,-0.0422 0.0317,-0.0845 0.0478,-0.12671 z m -0.0478,0.12671 c -2.93713,7.69914 -4.5119,15.28981 -4.44143,22.74961 -0.62369,-0.67938 -1.25654,-1.35247 -1.89796,-2.01971 -0.16798,-5.50832 2.21613,-14.47797 2.39374,-14.83352 -1.83981,4.79901 -2.89299,9.5354 -3.00901,14.19726 -3.6141,-3.7054 -7.50373,-7.22228 -11.65562,-10.55983 1.43403,1.30783 7.12976,7.77243 13.59043,16.68984 -0.83458,-0.1383 -1.6739,-0.25594 -2.5178,-0.35298 -2.3264,-3.7361 -5.40298,-7.12872 -9.11515,-10.23057 0.29277,0.19979 5.45436,5.5288 8.36698,10.15005 -4.0464,-0.40634 -8.19759,-0.3489 -12.44341,0.12853 -4.22232,-0.45851 -8.61029,-0.54685 -13.15281,-0.28898 0.87997,-0.007 4.32038,0.26536 8.79002,0.91972 -1.22371,0.21519 -2.4547,0.46241 -3.69292,0.74184 0.51865,-0.0969 2.42254,-0.33214 5.00112,-0.54315 2.97865,0.46663 6.31385,1.09329 9.61747,1.9124 -7.03063,1.01374 -13.9853,3.50312 -20.87643,7.22626 1.52422,-0.75143 16.36701,-6.73292 23.79597,-6.44628 5.02622,1.44734 9.67734,3.37126 12.46462,5.87915 0.57349,0.88673 1.14424,1.78521 1.71022,2.69431 -1.80681,0.086 -3.60354,0.26474 -5.39084,0.53042 -7.90649,-1.50418 -16.2434,-1.10044 -24.93169,0.85993 1.50828,-0.28046 14.38837,-1.70943 22.14982,-0.37404 -8.3936,1.68629 -16.57591,5.31617 -24.57691,10.61764 2.14197,-1.2692 22.89957,-10.87498 34.04775,-9.51547 7.14555,11.85018 5.35016,0.35741 5.43812,11.37557 l 5.2124,-0.81254 c -3.17861,-14.75835 -0.96182,-3.03477 -8.7799,-14.61994 10.83264,-3.45693 32.08738,0.57897 34.39239,1.26523 -8.67842,-3.06073 -17.14429,-4.59142 -25.36439,-4.35159 6.90766,-3.51747 21.07735,-5.45581 22.67434,-5.5541 -9.2947,0.22486 -17.80431,2.00255 -25.34526,5.69628 -2.56125,0.19675 -5.09809,0.56902 -7.60925,1.1265 -1.09748,-1.5583 -2.2356,-3.08879 -3.41345,-4.59211 2.20143,-2.85017 5.9586,-5.58777 10.12636,-8.01032 7.13241,-2.0875 22.97559,0.0944 24.64723,0.453 -7.58985,-1.93127 -14.9408,-2.6511 -22.00586,-1.92113 8.14415,-4.3356 16.89362,-7.37962 18.38134,-7.74298 -12.9522,2.48375 -23.943,7.46119 -32.53099,15.49357 -0.16345,-0.20056 -0.32745,-0.40075 -0.49239,-0.60029 3.7368,-6.41687 16.80265,-15.73249 18.25641,-16.61249 -7.69154,4.27326 -14.1145,9.45175 -18.98819,15.7357 -0.71509,-0.84789 -1.44293,-1.68713 -2.18429,-2.51705 -1.0076,-7.50078 2.82119,-22.35398 3.35921,-23.94373 z m 17.81323,10.72509 c 0.0383,-0.0213 0.076,-0.0428 0.11442,-0.0641 -0.0212,0.009 -0.0616,0.0321 -0.11442,0.0641 z m 14.76698,1.7192 c 0.0646,-0.0123 0.12832,-0.0259 0.193,-0.0381 -0.0352,0.002 -0.10366,0.0163 -0.193,0.0381 z m 3.6245,9.66411 c 0.0434,0.011 0.0867,0.0213 0.13009,0.0325 -0.0222,-0.007 -0.0684,-0.0193 -0.13009,-0.0325 z m 1.59438,5.32665 c 0.0438,-9.3e-4 0.0873,-0.003 0.1312,-0.004 -0.023,-0.002 -0.0694,-10e-5 -0.1312,0.004 z m 2.69005,9.9057 c 0.0613,0.0215 0.12245,0.0419 0.18379,0.0636 -0.0314,-0.0158 -0.0964,-0.0377 -0.18379,-0.0636 z m -70.31076,12.30714 c -0.0795,0.0471 -0.13856,0.0851 -0.16535,0.10821 0.055,-0.0366 0.11025,-0.0718 0.16535,-0.10821 z m 2.42709,-10.2436 c -0.0626,0.0114 -0.10968,0.0218 -0.13185,0.0294 0.0439,-0.0104 0.0879,-0.019 0.13185,-0.0294 z m -7.64828,-3.51753 c -0.0556,0.0274 -0.0968,0.0493 -0.11601,0.0621 0.0387,-0.0209 0.0773,-0.0413 0.11601,-0.0621 z m 6.25784,-8.5955 c -0.0607,0.0114 -0.10602,0.021 -0.12796,0.0282 0.0427,-0.01 0.0852,-0.0186 0.12796,-0.0282 z m -5.0971,-1.66157 c -0.0913,6.9e-4 -0.16029,0.004 -0.19481,0.0101 0.0651,-0.004 0.12976,-0.007 0.19481,-0.0101 z m 15.27175,-16.09589 c -0.12855,-0.1172 -0.22572,-0.19616 -0.28309,-0.22866 0.0951,0.0756 0.18846,0.15265 0.28309,0.22866 z m 1.36763,16.85411 c 3.24223,-0.0848 6.65803,-0.0201 9.53434,0.36421 0.47409,0.83179 0.85681,1.6263 1.09702,2.34432 -3.40363,-1.21647 -6.94998,-2.11349 -10.63136,-2.70853 z m 10.30114,0.47711 c 1.05247,0.16838 2.01744,0.38486 2.85638,0.65902 0.84966,1.19081 1.70886,2.42135 2.57096,3.68487 -1.33082,-0.63284 -2.68693,-1.20895 -4.06646,-1.73286 -0.41448,-0.88824 -0.86837,-1.75851 -1.36088,-2.61103 z" style="opacity:1;fill:#210e00;fill-opacity:1;fill-rule:nonzero;stroke:none;stroke-width:2.94598007;stroke-linecap:round;stroke-linejoin:round;stroke-miterlimit:4;stroke-dasharray:none;stroke-dashoffset:0;stroke-opacity:1;paint-order:normal"/> <g id="g2227" transform="matrix(0.93113389,0,0,0.93113389,68.238651,59.49357)"> <path id="path815" transform="matrix(0.26458333,0,0,0.26458333,0,-496.75002)" d="m 1477.7207,1395.9883 c -41.7186,0.632 -75.0373,34.9429 -74.4453,76.6621 v 566.8633 h -54.8926 v -259.7774 c 0.6035,-42.6118 -34.1153,-77.3005 -76.7266,-76.6601 -41.7208,0.6278 -75.044,34.9387 -74.4531,76.6601 v 335.3672 c 0,41.7453 33.8446,75.5854 75.5899,75.5899 h 130.4824 v 225.6654 c -0.5863,7.6166 33.428,13.8478 75.5908,13.8478 42.1628,0 76.1771,-6.2312 75.5908,-13.8478 v -367.0795 h 130.4746 c 41.7452,0 75.5853,-33.8446 75.5899,-75.5898 v -270.7247 c 0.6035,-42.6118 -34.1153,-77.3005 -76.7266,-76.6601 -41.7216,0.6267 -75.046,34.938 -74.4551,76.6601 v 195.1329 h -54.8828 v -425.4473 c 0.6048,-42.6164 -34.1205,-77.3081 -76.7363,-76.6621 z" style="color:#000000;font-style:normal;font-variant:normal;font-weight:normal;font-stretch:normal;font-size:medium;line-height:normal;font-family:sans-serif;font-variant-ligatures:normal;font-variant-position:normal;font-variant-caps:normal;font-variant-numeric:normal;font-variant-alternates:normal;font-feature-settings:normal;text-indent:0;text-align:start;text-decoration:none;text-decoration-line:none;text-decoration-style:solid;text-decoration-color:#000000;letter-spacing:normal;word-spacing:normal;text-transform:none;writing-mode:lr-tb;direction:ltr;text-orientation:mixed;dominant-baseline:auto;baseline-shift:baseline;text-anchor:start;white-space:normal;shape-padding:0;clip-rule:nonzero;display:inline;overflow:visible;visibility:visible;opacity:1;isolation:auto;mix-blend-mode:normal;color-interpolation:sRGB;color-interpolation-filters:linearRGB;solid-color:#000000;solid-opacity:1;vector-effect:none;fill:#1e7110;fill-opacity:1;fill-rule:nonzero;stroke:none;stroke-width:151.18110657;stroke-linecap:round;stroke-linejoin:round;stroke-miterlimit:4;stroke-dasharray:none;stroke-dashoffset:0;stroke-opacity:1;paint-order:normal;color-rendering:auto;image-rendering:auto;shape-rendering:auto;text-rendering:auto;enable-background:accumulate"/> <path id="path2208" transform="matrix(0.26458333,0,0,0.26458333,0,-496.75002)" d="m 1479.7129,1395.9844 c -0.6619,-0.01 -1.3263,-0.01 -1.9922,0 -41.7186,0.632 -75.0373,34.9429 -74.4453,76.6621 v 566.8633 c 0,0 -40.6089,24.7644 -76.3203,15.7148 -35.7113,-9.0496 21.4277,-275.4922 21.4277,-275.4922 0.6035,-42.6118 -34.1153,-77.3005 -76.7266,-76.6601 -41.7207,0.6278 -75.044,34.9387 -74.4531,76.6601 v 335.3672 c 0,41.7453 33.8446,75.5854 75.5899,75.5899 0,0 146.0553,-41.2043 140.4824,-4.2852 -5.5729,36.9191 -10,229.9512 -10,229.9512 -0.5863,7.6166 33.427,13.8476 75.5898,13.8476 17.798,0 34.1035,-1.1184 47.0078,-2.9746 -0.071,-3.1825 -7.6387,-344.4702 7.1563,-382.2383 14.8642,-37.9447 95.3151,-8.571 129.0449,-17.1425 33.7297,-8.5714 62.7312,-29.0038 74.1621,-64.1621 11.4309,-35.1583 24.2852,-260.7247 24.2852,-260.7247 0.6035,-42.6118 -34.1153,-77.3005 -76.7266,-76.6601 -41.7216,0.6267 -75.046,34.938 -74.4551,76.6601 v 195.1329 c 0,0 -49.6908,61.7694 -73.455,-4.2852 -23.7643,-66.0546 18.5722,-421.1621 18.5722,-421.1621 0.5954,-41.9505 -33.0435,-76.2215 -74.7441,-76.666 z" style="color:#000000;font-style:normal;font-variant:normal;font-weight:normal;font-stretch:normal;font-size:medium;line-height:normal;font-family:sans-serif;font-variant-ligatures:normal;font-variant-position:normal;font-variant-caps:normal;font-variant-numeric:normal;font-variant-alternates:normal;font-feature-settings:normal;text-indent:0;text-align:start;text-decoration:none;text-decoration-line:none;text-decoration-style:solid;text-decoration-color:#000000;letter-spacing:normal;word-spacing:normal;text-transform:none;writing-mode:lr-tb;direction:ltr;text-orientation:mixed;dominant-baseline:auto;baseline-shift:baseline;text-anchor:start;white-space:normal;shape-padding:0;clip-rule:nonzero;display:inline;overflow:visible;visibility:visible;opacity:1;isolation:auto;mix-blend-mode:normal;color-interpolation:sRGB;color-interpolation-filters:linearRGB;solid-color:#000000;solid-opacity:1;vector-effect:none;fill:#279315;fill-opacity:1;fill-rule:nonzero;stroke:none;stroke-width:151.18110657;stroke-linecap:round;stroke-linejoin:round;stroke-miterlimit:4;stroke-dasharray:none;stroke-dashoffset:0;stroke-opacity:1;paint-order:normal;color-rendering:auto;image-rendering:auto;shape-rendering:auto;text-rendering:auto;enable-background:accumulate"/> </g> <path style="opacity:1;fill:#210e00;fill-opacity:1;fill-rule:nonzero;stroke:none;stroke-width:2.94598007;stroke-linecap:round;stroke-linejoin:round;stroke-miterlimit:4;stroke-dasharray:none;stroke-dashoffset:0;stroke-opacity:1;paint-order:normal" d="m 611.95171,178.10339 c 0.0104,0.0211 0.0274,0.0664 0.0478,0.12672 -0.0162,-0.0423 -0.0317,-0.0845 -0.0478,-0.12672 z m 0.0478,0.12672 c 2.93713,7.69912 4.5119,15.2898 4.44143,22.7496 0.62369,-0.67938 1.25654,-1.35247 1.89796,-2.01971 0.16798,-5.50832 -2.21613,-14.47797 -2.39374,-14.83353 1.83981,4.79902 2.89299,9.53541 3.00901,14.19727 3.6141,-3.7054 7.50373,-7.22228 11.65562,-10.55983 -1.43404,1.30784 -7.12976,7.77243 -13.59044,16.68984 0.83459,-0.1383 1.6739,-0.25594 2.51781,-0.35298 2.3264,-3.7361 5.40298,-7.12872 9.11515,-10.23057 -0.29277,0.19979 -5.45436,5.5288 -8.36698,10.15005 4.0464,-0.40634 8.19759,-0.3489 12.44341,0.12853 4.22232,-0.45851 8.61029,-0.54685 13.15281,-0.28898 -0.87997,-0.007 -4.32038,0.26536 -8.79002,0.91972 1.22371,0.21519 2.4547,0.46241 3.69292,0.74184 -0.51865,-0.0969 -2.42254,-0.33214 -5.00112,-0.54315 -2.97865,0.46663 -6.31385,1.09329 -9.61748,1.9124 7.03064,1.01374 13.98531,3.50312 20.87644,7.22626 -1.52422,-0.75143 -16.36701,-6.73292 -23.79597,-6.44628 -5.02622,1.44734 -9.67734,3.37126 -12.46462,5.87915 -0.57349,0.88674 -1.14424,1.78521 -1.71023,2.69431 1.80681,0.086 3.60355,0.26474 5.39085,0.53042 7.90649,-1.50418 16.2434,-1.10044 24.93169,0.85993 -1.50828,-0.28046 -14.38838,-1.70943 -22.14982,-0.37404 8.3936,1.6863 16.57591,5.31617 24.57691,10.61764 -2.14197,-1.2692 -22.89957,-10.87498 -34.04776,-9.51547 -7.14554,11.85018 -5.35015,0.35741 -5.43811,11.37557 l -5.2124,-0.81254 c 3.17861,-14.75835 0.96182,-3.03477 8.7799,-14.61994 -10.83264,-3.45693 -32.08738,0.57897 -34.39239,1.26523 8.67842,-3.06073 17.14429,-4.59142 25.36439,-4.35159 -6.90766,-3.51747 -21.07735,-5.45581 -22.67434,-5.5541 9.2947,0.22487 17.80431,2.00255 25.34526,5.69628 2.56125,0.19675 5.09809,0.56902 7.60925,1.1265 1.09748,-1.5583 2.2356,-3.08879 3.41345,-4.59211 -2.20143,-2.85017 -5.9586,-5.58776 -10.12636,-8.01032 -7.13241,-2.08749 -22.97559,0.0944 -24.64723,0.453 7.58985,-1.93127 14.9408,-2.6511 22.00586,-1.92113 -8.14415,-4.3356 -16.89362,-7.37962 -18.38135,-7.74298 12.95221,2.48375 23.943,7.46119 32.531,15.49357 0.16345,-0.20056 0.32745,-0.40075 0.49238,-0.60029 -3.73679,-6.41687 -16.80264,-15.73249 -18.2564,-16.61248 7.69154,4.27325 14.1145,9.45174 18.98819,15.73569 0.71508,-0.84789 1.44292,-1.68713 2.18429,-2.51705 1.0076,-7.50077 -2.82119,-22.35398 -3.35921,-23.94372 z m -17.81323,10.72508 c -0.0383,-0.0213 -0.076,-0.0428 -0.11442,-0.0641 0.0212,0.009 0.0616,0.0321 0.11442,0.0641 z m -14.76698,1.7192 c -0.0646,-0.0123 -0.12832,-0.0259 -0.193,-0.0381 0.0352,0.002 0.10366,0.0163 0.193,0.0381 z m -3.6245,9.66411 c -0.0434,0.011 -0.0867,0.0213 -0.13009,0.0325 0.0222,-0.007 0.0684,-0.0193 0.13009,-0.0325 z m -1.59438,5.32665 c -0.0438,-9.3e-4 -0.0873,-0.003 -0.1312,-0.004 0.023,-0.002 0.0694,-1e-4 0.1312,0.004 z m -2.69005,9.9057 c -0.0613,0.0215 -0.12245,0.0419 -0.18379,0.0636 0.0314,-0.0158 0.0964,-0.0377 0.18379,-0.0636 z m 70.31076,12.30714 c 0.0795,0.0471 0.13856,0.0851 0.16535,0.10822 -0.055,-0.0366 -0.11025,-0.0718 -0.16535,-0.10822 z m -2.42709,-10.2436 c 0.0626,0.0114 0.10967,0.0218 0.13184,0.0294 -0.0439,-0.0104 -0.0879,-0.019 -0.13184,-0.0294 z m 7.64827,-3.51753 c 0.0556,0.0274 0.0968,0.0493 0.11601,0.0621 -0.0386,-0.0209 -0.0773,-0.0412 -0.11601,-0.0621 z m -6.25783,-8.5955 c 0.0607,0.0114 0.10602,0.0211 0.12796,0.0282 -0.0427,-0.01 -0.0852,-0.0186 -0.12796,-0.0282 z m 5.0971,-1.66157 c 0.0914,6.9e-4 0.16029,0.004 0.1948,0.0101 -0.0651,-0.004 -0.12975,-0.007 -0.1948,-0.0101 z M 630.6098,187.7639 c 0.12854,-0.1172 0.22572,-0.19616 0.28309,-0.22866 -0.0951,0.0756 -0.18846,0.15265 -0.28309,0.22866 z m -1.36763,16.85411 c -3.24224,-0.0848 -6.65803,-0.0201 -9.53435,0.36421 -0.47408,0.83179 -0.8568,1.6263 -1.09701,2.34432 3.40363,-1.21647 6.94998,-2.11349 10.63136,-2.70853 z m -10.30114,0.47711 c -1.05247,0.16838 -2.01744,0.38486 -2.85638,0.65902 -0.84966,1.19081 -1.70886,2.42135 -2.57096,3.68487 1.33082,-0.63284 2.68693,-1.20895 4.06646,-1.73285 0.41448,-0.88825 0.86837,-1.75852 1.36088,-2.61104 z" id="path2286"/> <g id="g2223" transform="matrix(0.93113389,0,0,0.93113389,2.0727117,95.392107)"> <path id="path831" transform="matrix(0.26458333,0,0,0.26458333,0,-496.75002)" d="m 2366.6562,1331.3379 c -41.7193,0.631 -75.0392,34.9422 -74.4472,76.6621 v 603.2324 h -62.9746 v -110.2773 c 0.6046,-42.6126 -34.1145,-77.3026 -76.7266,-76.6621 -41.7224,0.6267 -75.0471,34.9392 -74.4551,76.6621 v 185.8691 c 0,41.746 33.8458,75.5864 75.5918,75.5899 h 138.5645 v 253.9447 c -0.5863,7.6166 33.428,13.8478 75.5908,13.8478 42.1628,0 76.1771,-6.2312 75.5908,-13.8478 v -391.3295 h 134.5196 c 41.746,0 75.5872,-33.8438 75.5918,-75.5898 V 1553.459 c 0.5991,-42.6096 -34.1196,-77.2939 -76.7286,-76.6524 -41.7178,0.6278 -75.0397,34.934 -74.4531,76.6524 v 320.3887 h -58.9297 V 1408 c 0.6047,-42.6157 -34.1193,-77.307 -76.7344,-76.6621 z" style="color:#000000;font-style:normal;font-variant:normal;font-weight:normal;font-stretch:normal;font-size:medium;line-height:normal;font-family:sans-serif;font-variant-ligatures:normal;font-variant-position:normal;font-variant-caps:normal;font-variant-numeric:normal;font-variant-alternates:normal;font-feature-settings:normal;text-indent:0;text-align:start;text-decoration:none;text-decoration-line:none;text-decoration-style:solid;text-decoration-color:#000000;letter-spacing:normal;word-spacing:normal;text-transform:none;writing-mode:lr-tb;direction:ltr;text-orientation:mixed;dominant-baseline:auto;baseline-shift:baseline;text-anchor:start;white-space:normal;shape-padding:0;clip-rule:nonzero;display:inline;overflow:visible;visibility:visible;opacity:1;isolation:auto;mix-blend-mode:normal;color-interpolation:sRGB;color-interpolation-filters:linearRGB;solid-color:#000000;solid-opacity:1;vector-effect:none;fill:#1e7110;fill-opacity:1;fill-rule:nonzero;stroke:none;stroke-width:151.18110657;stroke-linecap:round;stroke-linejoin:round;stroke-miterlimit:4;stroke-dasharray:none;stroke-dashoffset:0;stroke-opacity:1;paint-order:normal;color-rendering:auto;image-rendering:auto;shape-rendering:auto;text-rendering:auto;enable-background:accumulate"/> <path id="path2216" transform="matrix(0.26458333,0,0,0.26458333,0,-496.75002)" d="m 2368.6484,1331.334 c -0.6619,-0.01 -1.3263,-0.01 -1.9922,0 -41.7192,0.631 -75.0392,34.9422 -74.4472,76.6621 v 603.2324 c 0,0 -70.544,36.0065 -75.832,7.1426 -5.288,-28.864 12.8574,-117.4199 12.8574,-117.4199 0.6046,-42.6126 -34.1145,-77.3026 -76.7266,-76.6621 -41.7224,0.6267 -75.0471,34.9392 -74.4551,76.6621 v 185.8691 c 0,41.746 33.8458,75.5864 75.5918,75.5899 0,0 172.1206,-62.302 152.8496,15.7148 -9.4316,38.1831 -13.0458,96.0314 -14.2851,145.1738 v 93.0567 c -0.5863,7.6166 33.427,13.8476 75.5898,13.8476 19.1375,0 36.5511,-1.2918 49.8574,-3.4062 -0.1144,-5.6281 -7.4986,-370.6094 1.4493,-406.0567 9.0172,-35.7221 99.3606,-12.8577 141.6621,-15.7148 42.3016,-2.8571 62.7317,-43.2882 69.8769,-95.5898 7.1451,-52.3016 22.8575,-355.9805 22.8575,-355.9805 0.5991,-42.6096 -34.1196,-77.2939 -76.7286,-76.6524 -41.7178,0.6278 -75.0397,34.934 -74.4531,76.6524 v 320.3887 c 0,0 -54.6493,63.1399 -79.1328,8.082 -24.4834,-55.0579 20.2031,-473.9297 20.2031,-473.9297 0.5953,-41.9498 -33.0423,-76.2204 -74.7422,-76.666 z" style="color:#000000;font-style:normal;font-variant:normal;font-weight:normal;font-stretch:normal;font-size:medium;line-height:normal;font-family:sans-serif;font-variant-ligatures:normal;font-variant-position:normal;font-variant-caps:normal;font-variant-numeric:normal;font-variant-alternates:normal;font-feature-settings:normal;text-indent:0;text-align:start;text-decoration:none;text-decoration-line:none;text-decoration-style:solid;text-decoration-color:#000000;letter-spacing:normal;word-spacing:normal;text-transform:none;writing-mode:lr-tb;direction:ltr;text-orientation:mixed;dominant-baseline:auto;baseline-shift:baseline;text-anchor:start;white-space:normal;shape-padding:0;clip-rule:nonzero;display:inline;overflow:visible;visibility:visible;opacity:1;isolation:auto;mix-blend-mode:normal;color-interpolation:sRGB;color-interpolation-filters:linearRGB;solid-color:#000000;solid-opacity:1;vector-effect:none;fill:#279315;fill-opacity:1;fill-rule:nonzero;stroke:none;stroke-width:151.18110657;stroke-linecap:round;stroke-linejoin:round;stroke-miterlimit:4;stroke-dasharray:none;stroke-dashoffset:0;stroke-opacity:1;paint-order:normal;color-rendering:auto;image-rendering:auto;shape-rendering:auto;text-rendering:auto;enable-background:accumulate"/> </g> <path style="opacity:1;fill:#210e00;fill-opacity:1;fill-rule:nonzero;stroke:none;stroke-width:2.94598007;stroke-linecap:round;stroke-linejoin:round;stroke-miterlimit:4;stroke-dasharray:none;stroke-dashoffset:0;stroke-opacity:1;paint-order:normal" d="m 241.09849,114.01618 c -0.0154,0.0177 -0.0432,0.0574 -0.0781,0.11063 0.0263,-0.0368 0.0519,-0.0738 0.0781,-0.11063 z m -0.0781,0.11063 c -4.77966,6.71255 -8.21348,13.66287 -10.02206,20.90046 -0.43269,-0.81444 -0.87586,-1.62509 -1.32879,-2.43225 1.22325,-5.3734 5.78732,-13.45474 6.04866,-13.75417 -2.988,4.18179 -5.1989,8.50087 -6.48405,12.98359 -2.56563,-4.49547 -5.44535,-8.87781 -8.62401,-13.15257 1.05919,1.62636 4.945,9.31617 8.95436,19.57218 -0.77294,-0.34383 -1.55566,-0.66884 -2.34801,-0.97508 -1.31161,-4.20122 -3.4357,-8.25873 -6.24808,-12.19475 0.23307,0.26703 3.88794,6.72321 5.54424,11.9286 -3.81401,-1.4113 -7.84613,-2.40008 -12.0755,-3.0062 -3.97115,-1.50604 -8.19576,-2.6955 -12.65705,-3.58875 0.85321,0.21548 4.11465,1.34378 8.2759,3.10159 -1.23849,-0.0996 -2.49209,-0.17004 -3.76077,-0.21111 0.52634,0.0367 2.42818,0.28801 4.9769,0.73253 2.76545,1.20101 5.83571,2.6466 8.827,4.27051 -7.05954,-0.78768 -14.4168,-0.12806 -22.02297,1.74161 1.66425,-0.3438 17.53447,-2.39865 24.65236,-0.25221 4.50042,2.66531 8.5179,5.6975 10.58459,8.82597 0.33194,1.0025 0.65829,2.01567 0.97736,3.03791 -1.77034,-0.37127 -3.55425,-0.65037 -5.3509,-0.84289 -7.27374,-3.44497 -15.44407,-5.15167 -24.3461,-5.44021 1.53032,0.10803 14.35564,1.96548 21.53147,5.21059 -8.54786,-0.47966 -17.38022,0.97491 -26.45765,4.0929 2.39239,-0.68947 24.899,-4.76396 35.34657,-0.64345 3.93436,13.26674 6.43877,27.67474 3.75189,38.36061 l 5.24916,0.52497 c 0.63663,-15.08334 -1.518,-29.16192 -6.16994,-42.34138 11.35392,-0.62039 30.90963,8.6331 32.96783,9.87719 -7.62923,-5.14566 -15.43769,-8.75701 -23.45373,-10.59295 7.57042,-1.66647 21.772,0.0224 23.34235,0.32909 -9.05231,-2.12078 -17.73545,-2.54118 -25.96313,-0.86345 -2.52836,-0.45396 -5.07727,-0.7319 -7.64792,-0.82412 -0.67011,-1.78429 -1.38658,-3.55188 -2.14833,-5.30319 2.84767,-2.20463 7.17274,-3.90892 11.81593,-5.205 7.42818,-0.22593 22.21284,5.87167 23.74046,6.63933 -6.85984,-3.77865 -13.79324,-6.32473 -20.81469,-7.39571 8.97296,-2.14718 18.20683,-2.89204 19.73813,-2.86943 -13.16047,-0.85473 -25.05,1.19747 -35.3826,6.81086 -0.10777,-0.2352 -0.2161,-0.47024 -0.32552,-0.70486 5.23101,-5.27033 20.22026,-10.99913 21.84865,-11.48507 -8.51922,2.20072 -16.03843,5.59671 -22.33631,10.45239 -0.47877,-1.00052 -0.97205,-1.99589 -1.48078,-2.98563 0.9119,-7.51302 8.35441,-20.92519 9.27508,-22.32845 z m 14.54201,14.86169 c 0.0424,-0.0109 0.0844,-0.0223 0.12686,-0.0332 -0.0228,0.003 -0.0677,0.0156 -0.12686,0.0332 z m 13.85947,5.37907 c 0.0656,0.004 0.13071,0.007 0.19638,0.0117 -0.0346,-0.007 -0.10439,-0.0103 -0.19638,-0.0117 z m 1.07656,10.26514 c 0.0392,0.0216 0.0785,0.0425 0.11775,0.0642 -0.0193,-0.0132 -0.0614,-0.0359 -0.11775,-0.0642 z m 0.20299,5.55643 c 0.0426,0.01 0.0852,0.0194 0.12788,0.0294 -0.0218,-0.007 -0.0671,-0.0176 -0.12788,-0.0294 z m 0.11138,10.26386 c 0.0539,0.0363 0.10802,0.0713 0.16189,0.10783 -0.0264,-0.0232 -0.0839,-0.0607 -0.16189,-0.10783 z m -71.14551,-5.77794 c -0.0888,0.0256 -0.15553,0.0475 -0.18725,0.0631 0.0625,-0.0216 0.12479,-0.0417 0.18725,-0.0631 z m 4.92618,-9.30349 c -0.0634,-0.005 -0.1116,-0.007 -0.135,-0.005 0.0452,9.3e-4 0.0899,0.004 0.135,0.005 z m -6.51731,-5.32857 c -0.0607,0.0126 -0.10611,0.0233 -0.12788,0.0309 0.0427,-0.0105 0.0852,-0.0205 0.12788,-0.0309 z m 8.21907,-6.74465 c -0.0616,-0.004 -0.10794,-0.006 -0.13093,-0.005 0.0438,0.001 0.0872,0.003 0.13093,0.005 z m -4.51513,-2.89048 c -0.0885,-0.0224 -0.15603,-0.0369 -0.19106,-0.0393 0.064,0.0127 0.12715,0.0265 0.19106,0.0393 z m 18.83004,-11.736 c -0.0949,-0.14578 -0.1689,-0.24678 -0.21643,-0.29256 0.0727,0.0973 0.144,0.19516 0.21643,0.29256 z m -2.91663,16.65607 c 3.1593,0.7336 6.44895,1.65557 9.13605,2.75119 0.24957,0.92432 0.42009,1.78955 0.47193,2.54491 -2.98811,-2.03364 -6.19471,-3.79402 -9.60798,-5.2961 z m 9.84978,3.05338 c 0.97625,0.42776 1.85572,0.88005 2.5987,1.35644 0.52273,1.36628 1.04472,2.77341 1.5612,4.21317 -1.12881,-0.9473 -2.29635,-1.84606 -3.4997,-2.70018 -0.17768,-0.96395 -0.39803,-1.92041 -0.6602,-2.86943 z" id="path2255"/> <g id="g2231" transform="matrix(0.93113389,0,0,0.93113389,46.438681,59.322778)"> <path id="path823" transform="matrix(0.26458333,0,0,0.26458333,0,-496.75002)" d="m 843.35156,1682.8711 c -41.72164,0.6278 -75.04511,34.9399 -74.45312,76.6621 v 656.8256 c -0.62402,7.6212 33.40079,13.8599 75.58984,13.8599 42.18905,0 76.21386,-6.2387 75.58984,-13.8599 v -294.3529 h 118.36138 c 41.7467,0 75.5882,-33.8451 75.5917,-75.5918 V 1872.668 c 0.6003,-42.6134 -34.1236,-77.3002 -76.7363,-76.6543 -41.71548,0.6321 -75.03296,34.9382 -74.44529,76.6543 v 98.1562 h -42.77149 v -211.291 c 0.60461,-42.6126 -34.11452,-77.3025 -76.72656,-76.6621 z" style="color:#000000;font-style:normal;font-variant:normal;font-weight:normal;font-stretch:normal;font-size:medium;line-height:normal;font-family:sans-serif;font-variant-ligatures:normal;font-variant-position:normal;font-variant-caps:normal;font-variant-numeric:normal;font-variant-alternates:normal;font-feature-settings:normal;text-indent:0;text-align:start;text-decoration:none;text-decoration-line:none;text-decoration-style:solid;text-decoration-color:#000000;letter-spacing:normal;word-spacing:normal;text-transform:none;writing-mode:lr-tb;direction:ltr;text-orientation:mixed;dominant-baseline:auto;baseline-shift:baseline;text-anchor:start;white-space:normal;shape-padding:0;clip-rule:nonzero;display:inline;overflow:visible;visibility:visible;opacity:1;isolation:auto;mix-blend-mode:normal;color-interpolation:sRGB;color-interpolation-filters:linearRGB;solid-color:#000000;solid-opacity:1;vector-effect:none;fill:#1e7110;fill-opacity:1;fill-rule:nonzero;stroke:none;stroke-width:151.18110657;stroke-linecap:round;stroke-linejoin:round;stroke-miterlimit:4;stroke-dasharray:none;stroke-dashoffset:0;stroke-opacity:1;paint-order:normal;color-rendering:auto;image-rendering:auto;shape-rendering:auto;text-rendering:auto;enable-background:accumulate"/> <path id="path2202" transform="matrix(0.26458333,0,0,0.26458333,0,-496.75002)" d="m 845.34375,1682.8672 c -0.66185,-0.01 -1.32637,-0.01 -1.99219,0 -41.72164,0.6278 -75.04511,34.9399 -74.45312,76.6621 v 656.8262 c -0.62402,7.6212 33.40079,13.8594 75.58984,13.8594 21.26328,0 40.43719,-1.5871 54.16211,-4.1348 -3.1e-4,-0.865 -0.0934,-259.5595 2.85547,-299.793 2.95383,-40.3008 83.20343,-17.8574 124.79104,-22.8574 41.5877,-5 69.2321,-32.4724 75.1215,-65.4676 3.702,-20.7404 12.6129,-165.298 12.6128,-165.298 0.6003,-42.6134 -34.1236,-77.3002 -76.7363,-76.6543 -41.71546,0.6321 -75.03296,34.9382 -74.44529,76.6543 v 98.1562 c 0,0 -59.41251,32.5304 -61.95035,2.3872 -3.97345,-47.1947 19.17886,-213.6782 19.17886,-213.6782 0.59517,-41.9468 -33.03754,-76.2162 -74.73437,-76.666 z" style="color:#000000;font-style:normal;font-variant:normal;font-weight:normal;font-stretch:normal;font-size:medium;line-height:normal;font-family:sans-serif;font-variant-ligatures:normal;font-variant-position:normal;font-variant-caps:normal;font-variant-numeric:normal;font-variant-alternates:normal;font-feature-settings:normal;text-indent:0;text-align:start;text-decoration:none;text-decoration-line:none;text-decoration-style:solid;text-decoration-color:#000000;letter-spacing:normal;word-spacing:normal;text-transform:none;writing-mode:lr-tb;direction:ltr;text-orientation:mixed;dominant-baseline:auto;baseline-shift:baseline;text-anchor:start;white-space:normal;shape-padding:0;clip-rule:nonzero;display:inline;overflow:visible;visibility:visible;opacity:1;isolation:auto;mix-blend-mode:normal;color-interpolation:sRGB;color-interpolation-filters:linearRGB;solid-color:#000000;solid-opacity:1;vector-effect:none;fill:#279315;fill-opacity:1;fill-rule:nonzero;stroke:none;stroke-width:151.18110657;stroke-linecap:round;stroke-linejoin:round;stroke-miterlimit:4;stroke-dasharray:none;stroke-dashoffset:0;stroke-opacity:1;paint-order:normal;color-rendering:auto;image-rendering:auto;shape-rendering:auto;text-rendering:auto;enable-background:accumulate"/> </g> <g transform="matrix(0.58265881,0,0,0.58265881,-227.95838,83.258787)" id="g2253"> <path style="color:#000000;font-style:normal;font-variant:normal;font-weight:normal;font-stretch:normal;font-size:medium;line-height:normal;font-family:sans-serif;font-variant-ligatures:normal;font-variant-position:normal;font-variant-caps:normal;font-variant-numeric:normal;font-variant-alternates:normal;font-feature-settings:normal;text-indent:0;text-align:start;text-decoration:none;text-decoration-line:none;text-decoration-style:solid;text-decoration-color:#000000;letter-spacing:normal;word-spacing:normal;text-transform:none;writing-mode:lr-tb;direction:ltr;text-orientation:mixed;dominant-baseline:auto;baseline-shift:baseline;text-anchor:start;white-space:normal;shape-padding:0;clip-rule:nonzero;display:inline;overflow:visible;visibility:visible;opacity:1;isolation:auto;mix-blend-mode:normal;color-interpolation:sRGB;color-interpolation-filters:linearRGB;solid-color:#000000;solid-opacity:1;vector-effect:none;fill:#1e7110;fill-opacity:1;fill-rule:nonzero;stroke:none;stroke-width:151.18110657;stroke-linecap:round;stroke-linejoin:round;stroke-miterlimit:4;stroke-dasharray:none;stroke-dashoffset:0;stroke-opacity:1;paint-order:normal;color-rendering:auto;image-rendering:auto;shape-rendering:auto;text-rendering:auto;enable-background:accumulate" d="m 2366.6562,1331.3379 c -41.7193,0.631 -75.0392,34.9422 -74.4472,76.6621 v 603.2324 h -62.9746 v -110.2773 c 0.6046,-42.6126 -34.1145,-77.3026 -76.7266,-76.6621 -41.7224,0.6267 -75.0471,34.9392 -74.4551,76.6621 v 185.8691 c 0,41.746 33.8458,75.5864 75.5918,75.5899 h 138.5645 v 253.9447 c -0.5863,7.6166 33.428,13.8478 75.5908,13.8478 42.1628,0 76.1771,-6.2312 75.5908,-13.8478 v -391.3295 h 134.5196 c 41.746,0 75.5872,-33.8438 75.5918,-75.5898 V 1553.459 c 0.5991,-42.6096 -34.1196,-77.2939 -76.7286,-76.6524 -41.7178,0.6278 -75.0397,34.934 -74.4531,76.6524 v 320.3887 h -58.9297 V 1408 c 0.6047,-42.6157 -34.1193,-77.307 -76.7344,-76.6621 z" transform="matrix(0.26458333,0,0,0.26458333,0,-496.75002)" id="path2249"/> <path style="color:#000000;font-style:normal;font-variant:normal;font-weight:normal;font-stretch:normal;font-size:medium;line-height:normal;font-family:sans-serif;font-variant-ligatures:normal;font-variant-position:normal;font-variant-caps:normal;font-variant-numeric:normal;font-variant-alternates:normal;font-feature-settings:normal;text-indent:0;text-align:start;text-decoration:none;text-decoration-line:none;text-decoration-style:solid;text-decoration-color:#000000;letter-spacing:normal;word-spacing:normal;text-transform:none;writing-mode:lr-tb;direction:ltr;text-orientation:mixed;dominant-baseline:auto;baseline-shift:baseline;text-anchor:start;white-space:normal;shape-padding:0;clip-rule:nonzero;display:inline;overflow:visible;visibility:visible;opacity:1;isolation:auto;mix-blend-mode:normal;color-interpolation:sRGB;color-interpolation-filters:linearRGB;solid-color:#000000;solid-opacity:1;vector-effect:none;fill:#279315;fill-opacity:1;fill-rule:nonzero;stroke:none;stroke-width:151.18110657;stroke-linecap:round;stroke-linejoin:round;stroke-miterlimit:4;stroke-dasharray:none;stroke-dashoffset:0;stroke-opacity:1;paint-order:normal;color-rendering:auto;image-rendering:auto;shape-rendering:auto;text-rendering:auto;enable-background:accumulate" d="m 2368.6484,1331.334 c -0.6619,-0.01 -1.3263,-0.01 -1.9922,0 -41.7192,0.631 -75.0392,34.9422 -74.4472,76.6621 v 603.2324 c 0,0 -70.544,36.0065 -75.832,7.1426 -5.288,-28.864 12.8574,-117.4199 12.8574,-117.4199 0.6046,-42.6126 -34.1145,-77.3026 -76.7266,-76.6621 -41.7224,0.6267 -75.0471,34.9392 -74.4551,76.6621 v 185.8691 c 0,41.746 33.8458,75.5864 75.5918,75.5899 0,0 172.1206,-62.302 152.8496,15.7148 -9.4316,38.1831 -13.0458,96.0314 -14.2851,145.1738 v 93.0567 c -0.5863,7.6166 33.427,13.8476 75.5898,13.8476 19.1375,0 36.5511,-1.2918 49.8574,-3.4062 -0.1144,-5.6281 -7.4986,-370.6094 1.4493,-406.0567 9.0172,-35.7221 99.3606,-12.8577 141.6621,-15.7148 42.3016,-2.8571 62.7317,-43.2882 69.8769,-95.5898 7.1451,-52.3016 22.8575,-355.9805 22.8575,-355.9805 0.5991,-42.6096 -34.1196,-77.2939 -76.7286,-76.6524 -41.7178,0.6278 -75.0397,34.934 -74.4531,76.6524 v 320.3887 c 0,0 -54.6493,63.1399 -79.1328,8.082 -24.4834,-55.0579 20.2031,-473.9297 20.2031,-473.9297 0.5953,-41.9498 -33.0423,-76.2204 -74.7422,-76.666 z" transform="matrix(0.26458333,0,0,0.26458333,0,-496.75002)" id="path2251"/> </g> </g> </svg>